<?xml version="1.0" encoding="utf-8"?>
<!-- Generator: Adobe Illustrator 28.2.0, SVG Export Plug-In . SVG Version: 6.00 Build 0)  -->
<svg version="1.1" id="レイヤー_1" xmlns="http://www.w3.org/2000/svg" xmlns:xlink="http://www.w3.org/1999/xlink" x="0px"
	 y="0px" viewBox="0 0 510.24 226.77" style="enable-background:new 0 0 510.24 226.77;" xml:space="preserve">
<style type="text/css">
	.st0{fill:url(#SVGID_1_);}
	.st1{fill:url(#SVGID_00000078753546130923143730000000351813712512957607_);}
	.st2{fill:url(#SVGID_00000160191053805858194940000008574603277568435342_);}
	.st3{fill:url(#SVGID_00000041994987738118353880000015702580828652787344_);}
	.st4{fill:url(#SVGID_00000043434271675072524990000004372046074856655508_);}
	.st5{fill:url(#SVGID_00000008865791826998770460000000848725874760053675_);}
	.st6{fill:url(#SVGID_00000041286948441269259400000018172364810197248153_);}
	.st7{fill:url(#SVGID_00000012467102241880713460000009907289053760750742_);}
	.st8{fill:url(#SVGID_00000128454477384374952660000015944824030246035391_);}
	.st9{fill:url(#SVGID_00000008844645519044219190000009750572659730585475_);}
	.st10{fill:url(#SVGID_00000033341914847707622690000012345296732832912775_);}
	.st11{fill:url(#SVGID_00000183931195570512887890000000322052000465465990_);}
	.st12{fill:url(#SVGID_00000152264218922984123240000003086144492506297217_);}
	.st13{fill:url(#SVGID_00000111870645979232808940000016941046164157182121_);}
	.st14{fill:url(#SVGID_00000014598362391417344510000012279219165192542850_);}
	.st15{fill:url(#SVGID_00000022549788300480628410000000593159906820645777_);}
	.st16{fill:url(#SVGID_00000029737930438125339500000005197726026589483441_);}
	.st17{fill:#00415C;}
</style>
<linearGradient id="SVGID_1_" gradientUnits="userSpaceOnUse" x1="272.074" y1="96.8161" x2="272.074" y2="149.4205">
	<stop  offset="0" style="stop-color:#AF302C"/>
	<stop  offset="1" style="stop-color:#7F1B17"/>
</linearGradient>
<path class="st0" d="M275.34,145.45h-1.31c-0.11-0.87-0.52-1.31-1.23-1.31c-0.46,0-0.8,0.11-1.04,0.33s-0.35,0.55-0.35,0.99
	c0,0.33,0.13,0.63,0.38,0.92l2.78,3.1c0.51,0.57,0.77,1.19,0.77,1.84v0.66c0,0.71-0.26,1.32-0.77,1.84
	c-0.51,0.52-1.13,0.77-1.85,0.77h-1.31c-0.87,0-1.52-0.22-1.96-0.66c-0.44-0.44-0.66-1.09-0.66-1.96h1.31
	c-0.01,0.09-0.01,0.16-0.01,0.22c0,0.36,0.14,0.63,0.41,0.82c0.27,0.18,0.57,0.28,0.9,0.28c0.47,0,0.8-0.11,1.01-0.34
	c0.21-0.22,0.31-0.55,0.31-0.98c0-0.33-0.13-0.64-0.38-0.92l-2.78-3.1c-0.51-0.57-0.77-1.18-0.77-1.84v-0.66
	c0-0.71,0.26-1.32,0.77-1.84c0.51-0.52,1.13-0.77,1.85-0.77h1.31C274.36,142.83,275.23,143.7,275.34,145.45z"/>
<linearGradient id="SVGID_00000106826462945547987090000007735615234771223683_" gradientUnits="userSpaceOnUse" x1="281.8713" y1="96.8161" x2="281.8713" y2="149.4205">
	<stop  offset="0" style="stop-color:#AF302C"/>
	<stop  offset="1" style="stop-color:#7F1B17"/>
</linearGradient>
<path style="fill:url(#SVGID_00000106826462945547987090000007735615234771223683_);" d="M277.95,154.59v-9.15
	c0-0.71,0.26-1.33,0.77-1.84c0.51-0.51,1.13-0.77,1.84-0.77h2.62c0.71,0,1.33,0.26,1.84,0.77c0.51,0.52,0.77,1.13,0.77,1.84v9.15
	h-2.61v-5.22h-2.62v5.22H277.95z M280.56,148.06h2.62v-2.62c0-0.36-0.13-0.66-0.39-0.92c-0.26-0.26-0.57-0.38-0.92-0.38
	c-0.36,0-0.67,0.13-0.92,0.38c-0.26,0.26-0.39,0.56-0.39,0.92V148.06z"/>
<linearGradient id="SVGID_00000005244471291267588550000004410024127976828555_" gradientUnits="userSpaceOnUse" x1="292.9724" y1="96.8161" x2="292.9724" y2="149.4205">
	<stop  offset="0" style="stop-color:#AF302C"/>
	<stop  offset="1" style="stop-color:#7F1B17"/>
</linearGradient>
<path style="fill:url(#SVGID_00000005244471291267588550000004410024127976828555_);" d="M288.4,154.59v-11.76h2.61v4.92l4.37-4.92
	h2.16l-5.23,5.88l5.23,5.88h-2.47l-4.07-4.57v4.57H288.4z"/>
<linearGradient id="SVGID_00000072239189732717539330000006585722702534129592_" gradientUnits="userSpaceOnUse" x1="303.4242" y1="96.8161" x2="303.4242" y2="149.4205">
	<stop  offset="0" style="stop-color:#AF302C"/>
	<stop  offset="1" style="stop-color:#7F1B17"/>
</linearGradient>
<path style="fill:url(#SVGID_00000072239189732717539330000006585722702534129592_);" d="M300.16,154.59v-11.76h6.54v1.31h-3.93
	v3.92h2.63v1.31h-2.63v3.91h3.93v1.31H300.16z"/>
<linearGradient id="SVGID_00000110462592684167773380000014919049736847064986_" gradientUnits="userSpaceOnUse" x1="312.5749" y1="96.8161" x2="312.5749" y2="149.4205">
	<stop  offset="0" style="stop-color:#AF302C"/>
	<stop  offset="1" style="stop-color:#7F1B17"/>
</linearGradient>
<path style="fill:url(#SVGID_00000110462592684167773380000014919049736847064986_);" d="M309.31,149.5v-1.31h6.53v1.31H309.31z"/>
<linearGradient id="SVGID_00000101783559030409310480000012150901308344144003_" gradientUnits="userSpaceOnUse" x1="321.0661" y1="96.8161" x2="321.0661" y2="149.4205">
	<stop  offset="0" style="stop-color:#AF302C"/>
	<stop  offset="1" style="stop-color:#7F1B17"/>
</linearGradient>
<path style="fill:url(#SVGID_00000101783559030409310480000012150901308344144003_);" d="M324.98,142.83v9.14
	c0,0.87-0.22,1.52-0.66,1.96c-0.44,0.44-1.09,0.66-1.96,0.66h-2.61c-0.87,0-1.52-0.22-1.96-0.66c-0.44-0.44-0.66-1.09-0.66-1.96
	v-2.61h2.61v2.62c0,0.36,0.13,0.66,0.39,0.92c0.26,0.26,0.57,0.38,0.92,0.38c0.36,0,0.66-0.13,0.92-0.38
	c0.26-0.26,0.39-0.56,0.39-0.92v-9.15H324.98z"/>
<linearGradient id="SVGID_00000067217707453649411370000012576899336787246485_" gradientUnits="userSpaceOnUse" x1="331.5139" y1="96.8161" x2="331.5139" y2="149.4205">
	<stop  offset="0" style="stop-color:#AF302C"/>
	<stop  offset="1" style="stop-color:#7F1B17"/>
</linearGradient>
<path style="fill:url(#SVGID_00000067217707453649411370000012576899336787246485_);" d="M327.59,154.59v-9.15
	c0-0.71,0.26-1.33,0.77-1.84c0.51-0.51,1.13-0.77,1.84-0.77h2.62c0.71,0,1.33,0.26,1.84,0.77c0.51,0.52,0.77,1.13,0.77,1.84v9.15
	h-2.61v-5.22h-2.62v5.22H327.59z M330.2,148.06h2.62v-2.62c0-0.36-0.13-0.66-0.39-0.92c-0.26-0.26-0.57-0.38-0.92-0.38
	c-0.36,0-0.67,0.13-0.92,0.38c-0.26,0.26-0.39,0.56-0.39,0.92V148.06z"/>
<linearGradient id="SVGID_00000013171591817535386830000007893125498579444389_" gradientUnits="userSpaceOnUse" x1="341.9617" y1="96.8161" x2="341.9617" y2="149.4205">
	<stop  offset="0" style="stop-color:#AF302C"/>
	<stop  offset="1" style="stop-color:#7F1B17"/>
</linearGradient>
<path style="fill:url(#SVGID_00000013171591817535386830000007893125498579444389_);" d="M338.04,142.83h7.84v1.31l-5.23,9.14h5.23
	v1.31h-7.84v-1.31l5.23-9.14h-5.23V142.83z"/>
<linearGradient id="SVGID_00000018196227085608592120000000494076950219174844_" gradientUnits="userSpaceOnUse" x1="352.4095" y1="96.8161" x2="352.4095" y2="149.4205">
	<stop  offset="0" style="stop-color:#AF302C"/>
	<stop  offset="1" style="stop-color:#7F1B17"/>
</linearGradient>
<path style="fill:url(#SVGID_00000018196227085608592120000000494076950219174844_);" d="M348.49,142.83h7.84v1.31l-5.23,9.14h5.23
	v1.31h-7.84v-1.31l5.23-9.14h-5.23V142.83z"/>
<linearGradient id="SVGID_00000038397239264969542060000009349346995689272231_" gradientUnits="userSpaceOnUse" x1="330.1011" y1="96.8161" x2="330.1011" y2="149.4205">
	<stop  offset="0" style="stop-color:#AF302C"/>
	<stop  offset="1" style="stop-color:#7F1B17"/>
</linearGradient>
<circle style="fill:url(#SVGID_00000038397239264969542060000009349346995689272231_);" cx="330.1" cy="108.25" r="4.75"/>
<linearGradient id="SVGID_00000070814036554415051640000001366732268008988069_" gradientUnits="userSpaceOnUse" x1="339.7093" y1="96.8161" x2="339.7093" y2="149.4205">
	<stop  offset="0" style="stop-color:#AF302C"/>
	<stop  offset="1" style="stop-color:#7F1B17"/>
</linearGradient>
<circle style="fill:url(#SVGID_00000070814036554415051640000001366732268008988069_);" cx="339.71" cy="101.81" r="4.75"/>
<linearGradient id="SVGID_00000152262835198477882210000003023239948022920587_" gradientUnits="userSpaceOnUse" x1="326.5978" y1="96.8161" x2="326.5978" y2="149.4205">
	<stop  offset="0" style="stop-color:#AF302C"/>
	<stop  offset="1" style="stop-color:#7F1B17"/>
</linearGradient>
<path style="fill:url(#SVGID_00000152262835198477882210000003023239948022920587_);" d="M348.65,107.44
	c-1.6,4.49-4.86,8.09-9.17,10.14c-4.31,2.04-9.16,2.29-13.65,0.69c-1.91-0.68-3.63-1.66-5.13-2.87l4.73-14.82
	c0.51-1.6,0.23-3.35-0.77-4.71c-0.99-1.36-2.57-2.16-4.25-2.16h-25.8v10.54h18.58l-10.43,32.68h11.06l3.53-11.06
	c1.54,0.92,3.18,1.71,4.93,2.33c3.12,1.11,6.34,1.66,9.55,1.66c4.15,0,8.29-0.92,12.15-2.76c6.85-3.25,12.03-8.98,14.58-16.12
	L348.65,107.44z"/>
<linearGradient id="SVGID_00000031174798127848180130000001804061842840719009_" gradientUnits="userSpaceOnUse" x1="283.6358" y1="96.8161" x2="283.6358" y2="149.4205">
	<stop  offset="0" style="stop-color:#AF302C"/>
	<stop  offset="1" style="stop-color:#7F1B17"/>
</linearGradient>
<path style="fill:url(#SVGID_00000031174798127848180130000001804061842840719009_);" d="M286.45,122.88l2.11-0.87l0.46,5.55
	l10.51-0.87l-1.05-12.73c-0.14-1.68-1.07-3.19-2.5-4.06c-1.44-0.88-3.21-1.02-4.76-0.37l-8.77,3.62l-2.04-4.94l-9.74,4.02l2.04,4.94
	l-4.94,2.04l4.02,9.74l4.94-2.04l4.13,10.02h11.4L286.45,122.88z"/>
<linearGradient id="SVGID_00000077293467326281303470000005749784563382234285_" gradientUnits="userSpaceOnUse" x1="249.8173" y1="96.8161" x2="249.8173" y2="149.4205">
	<stop  offset="0" style="stop-color:#AF302C"/>
	<stop  offset="1" style="stop-color:#7F1B17"/>
</linearGradient>
<path style="fill:url(#SVGID_00000077293467326281303470000005749784563382234285_);" d="M260.07,132.99
	c-1.6,4.49-4.86,8.09-9.16,10.14c-4.14,1.96-8.78,2.25-13.12,0.85c-1.35,3.52-4.3,6.35-8.15,7.92c1.29,0.71,2.65,1.34,4.08,1.85
	c3.12,1.11,6.34,1.66,9.55,1.66c4.15,0,8.29-0.92,12.15-2.76c6.85-3.25,12.03-8.98,14.57-16.12L260.07,132.99z"/>
<linearGradient id="SVGID_00000141419886129150695260000009312340536818217108_" gradientUnits="userSpaceOnUse" x1="252.4015" y1="96.8161" x2="252.4015" y2="149.4205">
	<stop  offset="0" style="stop-color:#AF302C"/>
	<stop  offset="1" style="stop-color:#7F1B17"/>
</linearGradient>
<circle style="fill:url(#SVGID_00000141419886129150695260000009312340536818217108_);" cx="252.4" cy="125.58" r="4.75"/>
<linearGradient id="SVGID_00000024003330553328677410000002984619115931144847_" gradientUnits="userSpaceOnUse" x1="262.0097" y1="96.8161" x2="262.0097" y2="149.4205">
	<stop  offset="0" style="stop-color:#AF302C"/>
	<stop  offset="1" style="stop-color:#7F1B17"/>
</linearGradient>
<circle style="fill:url(#SVGID_00000024003330553328677410000002984619115931144847_);" cx="262.01" cy="119.14" r="4.75"/>
<linearGradient id="SVGID_00000101826143045212155750000014828902034388905880_" gradientUnits="userSpaceOnUse" x1="227.8614" y1="96.8161" x2="227.8614" y2="149.4205">
	<stop  offset="0" style="stop-color:#AF302C"/>
	<stop  offset="1" style="stop-color:#7F1B17"/>
</linearGradient>
<path style="fill:url(#SVGID_00000101826143045212155750000014828902034388905880_);" d="M239.78,117.11v-12.87h0V93.7h-13.11v5.27
	v5.27v12.64c-2.15,1.39-3.52,3.46-3.52,5.79c0,2.32,1.37,4.4,3.52,5.79v4.26c-1.22-0.41-2.58-0.65-4-0.65
	c-5.47,0-9.91,3.39-9.91,7.58c0,4.18,4.44,7.58,9.91,7.58c5.47,0,9.91-3.39,9.91-7.58c0-2.2-1.23-4.17-3.19-5.56v-4.39
	c1.14,0.35,2.37,0.54,3.67,0.54c5.47,0,9.91-3.39,9.91-7.58C242.96,120.46,241.73,118.49,239.78,117.11z M229.39,115.63v-11.39h7.67
	v11.5c-1.22-0.41-2.58-0.65-4-0.65C231.76,115.09,230.52,115.28,229.39,115.63z"/>
<path class="st17" d="M146.48,134.78l-3.11,17.27c-0.22,1.71-1.8,3.11-3.52,3.11h-14.98c-1.72,0-3.31-1.4-3.52-3.11l-3.11-17.27
	H146.48z"/>
<path class="st17" d="M133.43,107.25c4.09-0.53,7.25-4.01,7.25-8.25c0-5.67-5.66-9.66-6.47-11.66c-0.83-2.06-0.41-6.99-1.86-6.78
	c-1.44-0.21-1.03,4.72-1.86,6.78c-0.8,2-6.47,5.99-6.47,11.66c0,4.23,3.16,7.72,7.25,8.25c-0.24,1.56-0.31,3.68-0.78,4.87
	c-0.8,2-6.47,5.99-6.47,11.66c0,4.6,3.73,8.32,8.32,8.32c4.6,0,8.32-3.73,8.32-8.32c0-5.67-5.66-9.66-6.47-11.66
	C133.74,110.93,133.68,108.8,133.43,107.25z"/>
<path class="st17" d="M208.82,136.88l-5.95-32.97c-3.63-15.75-7.09-22.67-12.66-24.67c-4.13-1.49-12.17-2.04-13.76-3.94
	c-3.36-4.03,5.3-8.41,4.39-10.85c-0.37-0.99-1.93-1.33-3.47-0.76L145.3,75.65c-1.54,0.57-2.5,1.85-2.13,2.84
	c0.91,2.44,10.33,0.08,10.42,5.33c0.05,2.47-5.67,8.16-7.82,11.98c-2.9,5.16-0.98,12.65,6.58,26.94l17.08,28.82
	c1.53,2.91,5.29,4.35,8.37,3.21l26.78-9.98C207.67,143.64,209.57,140.08,208.82,136.88z M176.48,138.04h-3.65
	c-3.24,0-5.88-2.89-5.88-6.43v-6.04h4.45v6.04c0,1.05,0.67,1.98,1.43,1.98h3.65V138.04z M178.7,106.47c0,3.55-2.89,6.43-6.43,6.43
	h-6.78c-1.09,0-1.98,0.89-1.98,1.98v0.23c0,1.11,0.94,2.07,2.04,2.1l10.99,0.31l-0.13,4.45l-10.99-0.31
	c-3.51-0.1-6.37-3.04-6.37-6.55v-0.23c0-3.55,2.89-6.43,6.43-6.43h6.78c1.09,0,1.98-0.89,1.98-1.98v-5.67h-0.36h-23.45
	c0.03-0.84,0.2-1.54,0.51-2.09c0.36-0.65,0.96-1.48,1.62-2.36h21.32h0.36v-5.09h4.45v5.09h5.35v4.45h-5.35V106.47z M191.86,121.55
	v10.06c0,3.55-2.89,6.43-6.43,6.43h-4.65v-4.45h4.65c1.09,0,1.98-0.89,1.98-1.98v-10.06h-6.63v-4.45h6.63v-5.81h4.45v5.81h7.35
	l0.8,4.45H191.86z"/>
<g>
	<polygon class="st17" points="281.79,63.42 203.16,77.79 203.16,83.24 281.79,68.86 360.43,83.24 360.43,77.79 	"/>
</g>
<g>
	<g>
		<rect x="269.53" y="75.68" class="st17" width="5.07" height="8.88"/>
	</g>
	<g>
		<rect x="279.26" y="75.68" class="st17" width="5.07" height="8.88"/>
	</g>
	<g>
		<rect x="288.98" y="75.68" class="st17" width="5.07" height="8.88"/>
	</g>
</g>
</svg>
